<?xml version="1.0" encoding="utf-8"?>
<!-- Generator: Adobe Illustrator 22.1.0, SVG Export Plug-In . SVG Version: 6.00 Build 0)  -->
<svg version="1.1" id="Layer_1" xmlns="http://www.w3.org/2000/svg" xmlns:xlink="http://www.w3.org/1999/xlink" x="0px" y="0px"
	 viewBox="0 0 1920 1080" style="enable-background:new 0 0 1920 1080;" xml:space="preserve">
<style type="text/css">
	.st0{fill:#161616;}
	.st1{display:none;}
	.st2{fill:#FFFFFF;}
	.st3{fill:#161616;stroke:#FFFFFF;stroke-width:6;stroke-miterlimit:10;}
	.st4{fill:#050505;}
</style>
<path class="st0" d="M1272,564.9L1272,564.9c0-52.9-0.2-105.8,0.1-158.7c0.1-14.4-5.3-24.2-18-31.5
	c-92.3-52.8-184.5-106-276.5-159.3c-12.4-7.2-23.2-7.1-35.5,0.1C897,242,851.8,268,806.6,294.1c-47.2,27.2-94.4,54.3-141.7,81.3
	c-11,6.3-17.1,15.1-17.1,28c0,107.6,0,215.3,0,322.9c0,11.6,5,20.4,15,26.3c9.2,5.4,18.4,10.5,27.6,15.8
	c83.8,48.3,167.6,96.5,251.3,145c12.8,7.4,24.6,8.1,36.8-0.4c2.1-1.4,4.3-2.7,6.5-4c90-51.8,180-103.7,270-155.4
	c11.9-6.8,17-16.5,16.9-30.1C1271.8,670.7,1272,617.8,1272,564.9z M1026.2,270.5c33.6,19.4,67.2,38.7,100.7,58.1
	c34,19.6,68,39.2,101.9,58.8c2.2,1.3,4.3,2.6,7.1,4.4c-16.9,9.8-33.2,19.2-49.4,28.7c-6.4,3.7-12.7,7.5-19.1,11.3
	c-8.9,5.2-12.8,4.7-19.2-3c-13.1-15.5-26-31.2-39-46.8c-26-31.5-52-63-78-94.5c-4.4-5.3-8.7-10.7-12.9-16
	C1020.7,266.2,1023.5,268.9,1026.2,270.5z M898,268.1c0.7,0.3,1.4,0.6,2.1,0.9c-0.8,2.4-1,5.3-2.5,7.2
	c-26.8,32.6-53.8,65.1-80.6,97.6c-13.8,16.7-27.5,33.6-41.2,50.3c-9.9,12.1-15,12.8-28.3,5c-18.7-11-37.5-21.8-56.2-32.7
	c-2.4-1.4-4.7-2.8-7.8-4.6C755.5,350.3,826.7,309.2,898,268.1z M672.5,658.6c-0.3-3.5-0.2-6.9-0.2-10.4v-236
	c6.2,3.6,10.8,6.1,15.3,8.7c18.2,10.5,36.4,21,54.5,31.5c8.3,4.8,9.2,7.4,5.9,16.3c-22.5,60.5-45.1,121-67.6,181.4
	c-1.1,3-2,6.1-3.4,9.1c-0.4,1-1.8,1.6-2.8,2.4C673.8,660.7,672.6,659.7,672.5,658.6z M1229.7,731.3c-14.9,1.4-29.6,4.5-44.4,7
	c-31.8,5.3-63.6,10.5-95.4,15.8l-31.9,28.9c23.5-4,47.1-7.9,70.6-11.9c18.6-3.1,37.2-6.3,55.7-9.5c3.4,5.3-0.8,6.3-3.6,8
	c-33.5,19.4-67.1,38.7-100.7,58.1c-31,17.9-61.8,35.9-92.9,53.6c-3.9,2.2-8.8,2.6-13.3,3.9c-1-4.3-2.7-8.6-2.8-13
	c0-3.4-0.1-6.8-0.1-10.1l-12.7,11.5l-9.4-9.5c0,2.8-0.1,5.5-0.1,8.3c-0.1,4.4-1.8,8.7-2.8,13c-4.3-1.2-9-1.6-12.7-3.8
	c-49.2-28.3-98.3-56.9-147.3-85.4c-14.6-8.5-29.2-16.8-43.7-25.4c-2.7-1.6-4.7-4.3-7-6.5c0.4-0.6,0.8-1.3,1.1-1.9
	c13.8,2.2,27.7,4.4,41.5,6.6c30.8,5.1,75.3,23.3,106.2,28.4L826.5,753c-55.8-9.3-94.9-15.4-150.7-24.7c31-82.8,61.7-164.7,93-248
	c8,13.8,15.9,27.5,23.9,41.3l-5.7-56.3l24.7-26.2h-18.4c21.6-26.1,42.3-51.2,63-76.3c31.1-37.8,62.2-75.6,93.3-113.4
	c1-1.3,2-2.5,3.1-3.7c5.7-6.3,9.2-6.4,14.6,0.2c10.8,12.9,21.4,26.1,32.1,39.1c39.4,48.1,78.8,96.1,118,144.2
	c2.1,2.6,3.4,5.8,5.8,10h-15.7l25.1,26.2l4.1,39.4c4.7-8.1,9.4-16.3,14.1-24.4c1.8,4.5,3.1,7.8,4.4,11.2
	c20.7,55.5,41.4,111,62.2,166.5c7.3,19.7,14.8,39.3,22.1,58.9C1243.7,728.3,1241.6,730.2,1229.7,731.3z M1246.1,661
	c-0.5,0.2-1,0.4-1.6,0.6c-0.8-1.2-1.8-2.3-2.3-3.7c-23.5-62.8-47-125.6-70.5-188.5c-3-8.2-1.8-12.7,5-16.6
	c22.8-13.2,45.7-26,69.4-39.5V661z"/>
<g>
	<path class="st0" d="M1094.8,478.6c0,0-95-26.6-120.8-53.2v-33.7c0,0-74.9,7.8-134,58.1c0,0,28.5-73.9,120-77.6
		C960,372.3,1071.3,370.3,1094.8,478.6z"/>
</g>
<g>
	<path class="st0" d="M974.4,433.6c-89.6,50.5-144.9,52.7-144.9,52.7c40.3,10.8,144.4-32.8,144.4-32.8v59.6l-32.9,55.9l51.4-46.5
		L968,554.2l-1.1,63.2l131-57.7l6.4-73.4C1024.7,473.2,974.4,433.6,974.4,433.6z M1089.2,552.5l-33.6,12.7l31.3-15.7l5.3-26
		L1089.2,552.5z"/>
</g>
<g>
	<polygon class="st0" points="823,517.5 836.8,565.1 892.3,583 898.7,581.1 845,558.8 830,520.3 	"/>
</g>
<path class="st0" d="M838.7,577c0,0,5.6,27.6,43.7,45.2c0,0,23.7,8.4,47.1-12.2"/>
<g>
	<path class="st0" d="M1080,574.6c0,0,5.6,28.7-31.4,45c0,0-23.1,11.1-50.6-10.7"/>
</g>
<g>
	<path class="st0" d="M969,658l-133.3-40.7L968,686.6v142.4l124.2-111.3l15.2-116.8L969,658z M1011.2,751.8l-3.2,1.8V699l3.2-1.7
		V751.8z M1033.6,735.4l-3.2,1.8v-54.5l3.2-1.8V735.4z M1054.6,724.7l-3.2,1.7v-54.5l3.2-1.8V724.7z"/>
</g>
<g>
	<polygon class="st4" points="881.6,679.4 881.6,736.3 871.9,731.5 871.9,674.8 872.3,674.8 	"/>
</g>
<g>
	<polygon class="st4" points="907.2,691.7 907.2,748.6 897.5,743.8 897.5,687.3 898.4,687.3 	"/>
</g>
<g>
	<polygon class="st4" points="934.7,703.4 934.7,760.3 925.1,755.5 925.1,698.6 	"/>
</g>
<g>
	<path class="st0" d="M1112.1,559.1l-3.4-0.3c-2.3-0.2-4-2.2-3.8-4.5l5.1-60c0.2-2.3,2.2-4,4.5-3.8l3.4,0.3c2.3,0.2,4,2.2,3.8,4.5
		l-5.1,60C1116.4,557.6,1114.4,559.3,1112.1,559.1z"/>
</g>
</svg>
